<svg xmlns="http://www.w3.org/2000/svg" height="24" viewBox="0 -960 960 960" width="24"><path stroke="currentColor" d="M300-248q-95.345 0-161.673-66.256Q72-380.513 72-475.756 72-571 138.327-637.5 204.655-704 300-704h422q69.3 0 118.65 48.5Q890-607 890-538t-49.35 117.5Q791.3-372 722-372H340q-43 0-73.5-30.5T236-476q0-43 30.5-73.5T340-580h382v66H340q-16.15 0-27.075 10.895-10.925 10.894-10.925 27Q302-460 312.925-449T340-438h382q42 0 71-29t29-71q0-42-29-71t-71-29H300q-66.825 0-114.413 47.624Q138-542.752 138-475.876T185.587-361.5Q233.175-314 300-314h422v66H300Z"/></svg>
